Coordinates
version=1
nRows=17
nColumns=34
inDegrees=yes

Units are S.I. units (second, meters, Newtons, ...)
If the header above contains a line with 'inDegrees', this indicates whether rotational values are in degrees (yes) or radians (no).

endheader
time	pelvis_tilt	pelvis_list	pelvis_rotation	pelvis_tx	pelvis_ty	pelvis_tz	hip_flexion_r	hip_adduction_r	hip_rotation_r	knee_angle_r	ankle_angle_r	subtalar_angle_r	mtp_angle_r	hip_flexion_l	hip_adduction_l	hip_rotation_l	knee_angle_l	ankle_angle_l	subtalar_angle_l	mtp_angle_l	lumbar_extension	lumbar_bending	lumbar_rotation	arm_flex_r	arm_add_r	arm_rot_r	elbow_flex_r	pro_sup_r	arm_flex_l	arm_add_l	arm_rot_l	elbow_flex_l	pro_sup_l
      0.00000000	     -3.56603452	      0.08395146	     -3.45402809	      1.57858652	      0.85454992	     -0.06220711	      9.76662795	     -5.49770396	     -7.56865634	     11.69416400	      3.09195104	    -10.80593926	      0.00000000	      6.34627041	     -4.87460257	     -4.75962980	      8.14216041	      7.18845576	     -4.08683414	      0.00000000	    -13.74065988	      3.22512329	     -3.65827457	     10.50339945	     -6.86791714	     31.91251811	     76.10993749	     96.16302154	      8.73507570	     -0.59926047	     26.52241841	     56.85024033	     80.64613620
      0.01666670	     -4.61706886	     -0.08554946	     -3.23320215	      1.57948966	      0.85520973	     -0.06241783	     11.12664811	     -4.99129990	     -6.84731444	     12.42147940	      6.13073132	    -10.26330690	      0.00000000	      8.13182007	     -4.64713196	     -4.39613858	      8.80668566	      8.47891176	     -3.11833195	      0.00000000	    -12.24593589	      4.00161272	     -3.72514778	      9.88748515	     -6.31591543	     29.73994497	     75.22701156	     95.25211666	      8.62670599	      0.17894920	     24.54912454	     54.75056284	     80.20369770
      0.03333330	     -4.83546442	      0.06961514	     -3.32701919	      1.57892169	      0.85655160	     -0.06183133	     11.14378003	     -5.09296895	     -7.23007473	     11.83902309	      6.31385651	    -10.45875874	      0.00000000	      8.23200401	     -4.68513269	     -4.53209585	      8.55300895	      8.55000074	     -3.21059808	      0.00000000	    -12.36648113	      3.91831720	     -3.37377256	     10.05309728	     -6.21820681	     29.70951993	     75.23847976	     95.23180470	      8.76749927	     -0.30639724	     24.35387854	     54.66199008	     80.18474195
      0.05000000	     -3.86322620	      0.11671543	     -3.13009665	      1.57822051	      0.85918964	     -0.06162755	      9.69167175	     -5.20585984	     -7.63020585	     11.07865273	      6.15402783	    -10.06831929	      0.00000000	      6.68289548	     -4.59773033	     -4.41400611	      7.60550905	      8.12255449	     -3.47109888	      0.00000000	    -13.39015204	      3.52500283	     -2.89805699	      9.89674893	     -6.38234015	     29.58764378	     75.37365729	     94.91410095	      9.39456084	     -0.61406166	     24.32615400	     54.50450451	     80.28370186
      0.06666670	     -3.81335040	      0.06588286	     -3.02001726	      1.57761902	      0.85976955	     -0.06145761	      9.49335078	     -5.07076118	     -7.68456000	     10.77629797	      6.24048729	    -10.07692442	      0.00000000	      6.50429410	     -4.66652997	     -4.36874531	      7.27669130	      8.19147572	     -3.57256270	      0.00000000	    -13.42175875	      3.55943500	     -2.79498784	      9.68239708	     -6.25677006	     29.86719630	     75.68808413	     94.88055286	      9.49791758	     -0.80818483	     24.42908726	     54.54452519	     80.34148449
      0.08333330	     -2.78511100	     -0.11708201	     -2.75023482	      1.57669877	      0.86075716	     -0.06189858	      8.10076631	     -4.88387999	     -7.90220574	     10.29321133	      5.98529894	     -9.90951959	      0.00000000	      5.30251708	     -4.74241914	     -3.82507131	      6.90938590	      7.73738982	     -4.22366352	      0.00000000	    -14.93552740	      3.76201363	     -2.58260741	      9.87291463	     -7.33878740	     31.40799374	     78.47816766	     94.52857198	     10.05802971	     -1.11268687	     26.18610683	     55.17440822	     81.03941267
      0.10000000	     -2.73680413	     -0.14518918	     -2.60682986	      1.57606792	      0.86017886	     -0.06180095	      8.04727995	     -4.82256347	     -7.87042248	     10.27447256	      6.00253796	     -9.90679672	      0.00000000	      5.31515457	     -4.76514053	     -3.83842196	      6.85152943	      7.73285117	     -4.24725738	      0.00000000	    -14.88477986	      3.71356889	     -2.53855447	      9.85654324	     -7.25440792	     31.47055500	     78.55248469	     94.51995371	     10.05787603	     -1.09587212	     26.22838954	     55.19597127	     81.05772603
      0.11666670	     -2.18472437	     -0.28563607	     -2.45127580	      1.57575686	      0.85992619	     -0.06192023	      7.17953324	     -4.61602713	     -7.70664994	      9.77544115	      5.86876464	    -10.37061035	      0.00000000	      4.67489972	     -4.84453354	     -3.23562678	      6.64355758	      7.23423827	     -5.17523601	      0.00000000	    -15.66317845	      3.76685053	     -2.10376071	      9.62788207	     -7.97931762	     32.54643229	     80.80107568	     93.73276765	     10.62065581	     -1.52928550	     28.33144037	     55.78985061	     82.24820391
      0.13333330	     -2.14043716	     -0.36914187	     -2.28843025	      1.57579438	      0.85924960	     -0.06204576	      7.05918295	     -4.49418327	     -7.77512913	      9.66237334	      5.83258507	    -10.43942150	      0.00000000	      4.68447366	     -4.94429971	     -3.22177779	      6.62764020	      7.09844657	     -5.16572027	      0.00000000	    -15.63205932	      3.72115542	     -2.15252374	      9.42668521	     -7.84043406	     32.67683428	     80.95709167	     93.68624354	     10.59190946	     -1.54936767	     28.41385245	     55.75395828	     82.31328215
      0.15000000	     -2.08195075	     -0.43173631	     -2.05747262	      1.57614353	      0.85842991	     -0.06240996	      6.77891585	     -4.41000169	     -7.88757302	      9.32138887	      5.78961387	    -10.63609192	      0.00000000	      4.66696588	     -5.00132329	     -3.11821541	      6.60544539	      6.91342089	     -5.20299527	      0.00000000	    -15.56506635	      3.77873306	     -2.20141662	      9.21297031	     -7.93050930	     32.83303730	     81.25608695	     93.61427751	     10.57130354	     -1.77574885	     28.51876394	     55.71170917	     82.41210252
      0.16666670	     -2.06752346	     -0.45362960	     -1.92166709	      1.57594007	      0.85825090	     -0.06278904	      6.73506784	     -4.38901306	     -7.87857472	      9.30113179	      5.76896437	    -10.65159877	      0.00000000	      4.68837350	     -5.01335367	     -3.12625367	      6.56651211	      6.90024110	     -5.22731104	      0.00000000	    -15.56492002	      3.76270670	     -2.17997289	      9.20090471	     -7.93365660	     32.85685242	     81.30045586	     93.60536339	     10.56220055	     -1.81262837	     28.53072917	     55.70849448	     82.42421547
      0.18333330	     -1.76244744	     -0.58027491	     -1.55130233	      1.57543074	      0.85886012	     -0.06377963	      6.02668090	     -4.22167745	     -7.90817022	      8.64724271	      5.04763633	    -11.66845420	      0.00000000	      4.44465988	     -5.07144675	     -2.44786497	      6.53565475	      6.36301452	     -6.14534064	      0.00000000	    -16.03183822	      3.92308874	     -2.21709114	      8.90115991	     -8.47522307	     33.30918804	     82.85109216	     93.07517166	     10.88422938	     -2.22533570	     29.33031299	     56.03986683	     83.05783355
      0.20000000	     -1.77115381	     -0.58829025	     -1.43658757	      1.57480204	      0.85944293	     -0.06459782	      5.98099391	     -4.22159747	     -7.91500274	      8.55660370	      5.07279242	    -11.69278533	      0.00000000	      4.48972462	     -5.04296478	     -2.47628169	      6.47514865	      6.31857057	     -6.15016538	      0.00000000	    -15.98391370	      3.90483087	     -2.14825544	      8.90127701	     -8.48065685	     33.30837897	     82.86366636	     93.06092968	     10.90424121	     -2.32489592	     29.30574804	     56.03491614	     83.06960757
      0.21666670	     -1.81487228	     -0.55349908	     -1.33778965	      1.57446217	      0.85898849	     -0.06548635	      5.87822178	     -4.25834931	     -7.99354181	      8.24299154	      5.12294766	    -11.78147166	      0.00000000	      4.56293347	     -4.95491406	     -2.50842428	      6.40532886	      6.16191098	     -6.13693589	      0.00000000	    -15.86925966	      3.89521430	     -2.09679572	      8.81705027	     -8.55351158	     33.32036068	     82.89142822	     93.03216371	     11.03579409	     -2.53649166	     29.24072270	     56.05348636	     83.09256195
      0.23333330	     -1.80052830	     -0.58369363	     -1.33362575	      1.57406453	      0.85850578	     -0.06632958	      5.87271106	     -4.26126100	     -7.99559387	      8.23097304	      5.12076429	    -11.78471516	      0.00000000	      4.57905965	     -4.93385631	     -2.50787399	      6.39463871	      6.15271195	     -6.13456821	      0.00000000	    -15.86360891	      3.88761696	     -2.09529686	      8.80949797	     -8.55584535	     33.32286391	     82.89330319	     93.03050897	     11.03807174	     -2.54309200	     29.23993461	     56.05514184	     83.09408542
      0.25000000	     -1.94194575	     -0.57442701	     -0.99084813	      1.57398878	      0.85848500	     -0.06708231	      5.71111039	     -4.27724828	     -8.24616297	      7.70090034	      4.44678014	    -12.31247769	      0.00000000	      4.70250108	     -4.83973930	     -2.06795436	      6.10499757	      5.57133042	     -6.33613581	      0.00000000	    -15.63090692	      3.86912907	     -2.13022310	      8.45380284	     -8.82628867	     33.38886588	     83.31621994	     92.66469890	     11.19953295	     -2.75442140	     29.49813165	     56.33283729	     83.41691207
      0.26666670	     -1.92655462	     -0.59408232	     -0.98707430	      1.57345870	      0.85978981	     -0.06720276	      5.71643695	     -4.27546301	     -8.24390402	      7.69316489	      4.44834685	    -12.31407282	      0.00000000	      4.72065998	     -4.81712184	     -2.06648258	      6.09669553	      5.56970225	     -6.33534132	      0.00000000	    -15.63230606	      3.86849122	     -2.12435008	      8.45106186	     -8.82707194	     33.39055184	     83.31494397	     92.66339577	     11.20221965	     -2.76159583	     29.49592903	     56.33269433	     83.41781513
